<?xml version="1.0" standalone="no"?>
<!DOCTYPE svg PUBLIC "-//W3C//DTD SVG 20010904//EN"
 "http://www.w3.org/TR/2001/REC-SVG-20010904/DTD/svg10.dtd">
<svg version="1.0" xmlns="http://www.w3.org/2000/svg"
 width="426.000000pt" height="267.000000pt" viewBox="0 0 426.000000 267.000000"
 preserveAspectRatio="xMidYMid meet">

<g transform="translate(0.000000,267.000000) scale(0.100000,-0.100000)"
fill="#FFFFFF" stroke="none">
<path d="M3335 2654 c-183 -34 -399 -109 -750 -259 -250 -108 -278 -120 -800
-359 -175 -80 -327 -148 -336 -151 -11 -4 -23 5 -37 30 -19 31 -26 35 -64 35
l-44 0 -14 -67 c-17 -79 -8 -73 -215 -148 -225 -82 -340 -107 -485 -107 -345
0 -540 136 -540 376 0 97 42 220 100 294 20 25 21 40 1 28 -6 -4 -26 -35 -45
-69 -100 -181 -96 -360 11 -487 41 -50 136 -107 227 -137 78 -26 90 -27 286
-27 222 0 279 9 523 82 53 17 97 27 97 23 0 -4 -40 -200 -90 -436 -49 -236
-90 -435 -90 -442 0 -8 12 -13 30 -13 17 0 30 2 30 5 0 2 20 98 44 212 24 114
65 309 91 433 26 124 50 236 54 249 8 26 76 60 91 45 8 -9 195 -314 427 -699
154 -255 146 -245 193 -245 45 0 43 -2 75 160 19 97 93 446 160 754 25 115 45
210 45 212 0 2 -15 4 -32 4 l-33 0 -42 -203 c-87 -418 -177 -827 -182 -827 -3
0 -56 82 -116 182 -153 254 -217 359 -328 540 l-96 157 212 84 c117 47 329
132 472 189 706 285 1064 390 1330 391 208 0 319 -60 359 -196 20 -67 146 5
161 91 21 125 -85 234 -280 288 -85 23 -298 28 -400 8z"/>
<path d="M2775 1974 c-150 -20 -247 -58 -319 -124 -81 -75 -125 -207 -97 -293
16 -48 76 -100 147 -126 32 -12 139 -40 239 -63 222 -50 275 -69 314 -114 40
-45 46 -74 32 -139 -37 -166 -196 -259 -441 -259 -255 0 -374 83 -372 261 l1
73 -29 0 c-34 0 -40 -13 -40 -94 0 -210 162 -309 480 -293 126 7 194 22 276
62 140 68 226 229 200 370 -10 49 -73 109 -143 135 -31 12 -133 37 -227 56
-276 56 -339 84 -364 159 -27 83 25 205 114 263 69 46 133 63 264 69 241 11
370 -67 370 -224 l0 -54 33 3 c31 3 32 5 35 50 9 132 -67 225 -212 262 -60 16
-208 27 -261 20z"/>
<path d="M303 1850 l-20 -100 33 0 c32 0 33 1 44 58 6 31 13 63 15 70 3 9 95
12 414 12 364 0 410 2 415 16 17 46 33 44 -437 44 l-443 0 -21 -100z"/>
<path d="M3624 1643 c-114 -170 -281 -417 -371 -551 -90 -134 -167 -250 -170
-258 -4 -10 3 -14 28 -14 33 1 39 8 158 186 l124 184 315 -2 316 -3 44 -182
44 -183 34 0 c19 0 34 5 34 11 0 11 -153 642 -231 952 l-42 167 -38 0 -38 0
-207 -307z m301 -50 c37 -153 71 -291 76 -307 5 -15 6 -32 3 -37 -9 -15 -564
-11 -564 3 0 14 402 617 412 618 3 0 36 -125 73 -277z"/>
<path d="M250 1594 c0 -7 -23 -113 -115 -538 -25 -115 -45 -215 -45 -222 0
-12 72 -14 448 -12 l447 3 3 28 3 27 -410 0 c-409 0 -411 0 -411 21 0 19 84
422 96 462 5 16 33 17 400 17 232 0 394 4 394 9 0 5 3 16 6 25 6 14 -32 16
-383 16 -214 0 -392 2 -395 6 -3 3 2 41 12 85 l17 79 -34 0 c-18 0 -33 -3 -33
-6z"/>
<path d="M810 703 c-84 -13 -131 -52 -151 -126 -16 -62 2 -114 46 -133 73 -30
178 -6 223 51 49 62 49 155 -1 188 -25 16 -80 25 -117 20z m80 -53 c14 -14 20
-33 20 -66 0 -39 -5 -51 -34 -80 -30 -30 -40 -34 -84 -34 -43 0 -54 4 -71 26
-25 31 -26 52 -7 99 28 67 132 99 176 55z"/>
<path d="M2180 700 c-89 -17 -143 -77 -144 -161 -1 -40 4 -53 26 -75 36 -37
116 -44 171 -16 33 18 38 18 46 5 13 -24 28 -8 35 39 4 24 9 53 13 66 5 21 2
22 -55 22 -45 0 -61 -4 -66 -16 -9 -24 -9 -24 29 -24 42 0 44 -12 9 -45 -21
-19 -38 -25 -73 -25 -54 0 -66 7 -80 42 -13 33 2 88 32 124 16 19 36 27 69 31
41 5 50 2 73 -21 33 -33 68 -35 63 -5 -6 44 -78 73 -148 59z"/>
<path d="M55 678 c-3 -13 -16 -71 -29 -130 l-23 -108 23 0 c18 0 25 8 34 38 9
36 26 58 57 76 7 4 25 -17 48 -54 33 -54 40 -60 71 -60 l34 0 -45 69 c-25 38
-45 74 -45 80 0 6 30 32 66 59 66 47 66 47 35 50 -26 3 -45 -8 -108 -57 -78
-63 -100 -74 -89 -44 4 9 10 36 13 60 5 39 4 43 -15 43 -14 0 -23 -8 -27 -22z"/>
<path d="M341 593 c-12 -60 -25 -118 -28 -130 -4 -19 -1 -23 20 -23 20 0 27 6
31 30 3 17 9 44 12 60 l6 30 85 0 86 0 -6 -43 c-3 -24 -9 -51 -13 -60 -5 -13
-1 -17 19 -17 28 0 26 -3 57 147 25 118 25 115 -2 111 -19 -2 -25 -13 -34 -53
l-10 -50 -85 0 c-93 0 -89 -4 -75 70 6 32 5 35 -17 35 -22 0 -25 -7 -46 -107z"/>
<path d="M1035 688 c-13 -37 -35 -148 -35 -179 0 -49 27 -71 93 -77 67 -5 120
16 141 57 9 17 23 61 31 98 9 37 18 78 20 91 4 18 1 22 -19 22 -22 0 -25 -7
-40 -77 -29 -138 -47 -159 -126 -151 -57 5 -60 31 -24 201 5 23 3 27 -15 27
-12 0 -24 -6 -26 -12z"/>
<path d="M1350 696 c0 -3 -11 -56 -25 -120 -30 -140 -30 -138 -3 -134 19 2 25
12 32 51 l8 47 63 0 c74 0 87 -11 78 -63 -5 -34 -4 -37 19 -37 23 0 26 5 31
48 3 26 1 53 -5 59 -7 9 -3 22 16 44 14 17 26 41 26 54 0 42 -34 55 -142 55
-54 0 -98 -2 -98 -4z m184 -52 c4 -9 -1 -27 -9 -40 -14 -21 -23 -24 -80 -24
-70 0 -73 4 -59 58 6 20 12 22 74 22 54 0 69 -3 74 -16z"/>
<path d="M1655 688 c-3 -7 -14 -56 -25 -108 -11 -52 -22 -105 -25 -117 -4 -19
-1 -23 19 -23 17 0 26 7 30 26 11 41 46 215 46 225 0 14 -40 11 -45 -3z"/>
<path d="M1765 678 c-3 -13 -16 -71 -29 -130 l-23 -108 109 0 c102 0 110 2
133 24 34 34 42 72 19 97 -17 19 -17 20 4 40 28 25 29 74 3 89 -11 5 -63 10
-115 10 -91 0 -96 -1 -101 -22z m182 -34 c13 -35 -10 -49 -83 -49 -63 0 -69 2
-66 20 6 43 10 45 77 45 52 0 67 -4 72 -16z m-26 -94 c24 -14 24 -35 -1 -60
-16 -16 -33 -20 -86 -20 l-66 0 7 37 c4 21 9 41 11 45 7 12 112 10 135 -2z"/>
<path d="M2502 688 c-9 -12 -137 -204 -156 -235 -5 -9 0 -13 18 -13 17 0 30 9
43 30 17 29 20 30 85 30 68 0 69 0 75 -30 4 -25 10 -30 33 -30 l28 0 -25 103
c-13 56 -27 114 -30 130 -4 21 -11 27 -33 27 -15 0 -32 -6 -38 -12z m44 -106
l7 -42 -48 0 c-53 0 -53 1 -9 71 30 48 38 43 50 -29z"/>
<path d="M2915 653 c-3 -21 -9 -48 -12 -60 -5 -22 -2 -23 43 -21 l49 1 -43 4
c-34 3 -42 8 -38 19 3 9 6 20 6 25 0 5 19 10 43 11 l42 1 -37 4 c-29 3 -38 9
-38 23 0 15 9 20 48 23 l47 3 -51 2 -52 2 -7 -37z"/>
<path d="M3052 667 c-32 -34 -30 -85 4 -97 30 -12 75 5 82 30 2 10 1 11 -5 4
-4 -6 -18 -16 -30 -23 -50 -26 -82 27 -47 77 18 26 71 31 80 7 4 -8 10 -15 15
-15 6 0 5 9 -1 20 -15 29 -70 27 -98 -3z"/>
<path d="M3203 675 c-12 -8 -24 -29 -28 -46 -9 -39 12 -62 56 -62 55 0 102 76
67 111 -17 17 -69 15 -95 -3z m87 -11 c32 -37 -35 -108 -79 -85 -10 6 -21 18
-25 26 -6 17 9 55 28 67 19 13 63 9 76 -8z"/>
<path d="M3347 676 c-3 -7 -9 -34 -12 -60 l-7 -46 43 2 44 1 -38 4 c-42 5 -41
0 -20 91 6 24 -2 30 -10 8z"/>
<path d="M3451 640 c-15 -71 -16 -70 37 -68 l47 1 -42 4 c-65 6 -56 49 12 56
l40 4 -42 1 c-24 1 -43 5 -43 10 1 20 19 31 60 35 l45 4 -52 1 -51 2 -11 -50z"/>
<path d="M2881 454 c-7 -30 -10 -58 -8 -61 3 -3 9 12 13 33 11 66 18 67 49 14
16 -28 34 -49 39 -47 12 4 37 117 26 117 -4 0 -11 -20 -14 -45 -4 -25 -11 -45
-16 -45 -4 0 -20 20 -34 45 -15 25 -30 45 -35 45 -4 0 -13 -25 -20 -56z"/>
<path d="M3047 453 c-21 -30 -36 -58 -33 -60 2 -3 9 5 16 16 16 31 75 29 85
-1 3 -13 8 -18 10 -13 7 15 -19 108 -30 111 -6 2 -27 -22 -48 -53z m55 12 c5
-22 2 -25 -24 -25 -28 0 -28 0 -12 25 9 14 20 25 24 25 4 0 10 -11 12 -25z"/>
<path d="M3173 503 c25 -4 28 -8 22 -30 -13 -54 -17 -88 -7 -73 5 8 13 34 17
57 6 35 11 42 33 46 15 2 0 4 -33 4 -33 0 -47 -2 -32 -4z"/>
<path d="M3275 464 c-3 -26 -9 -54 -12 -63 -4 -11 -3 -13 4 -6 13 12 33 115
23 115 -4 0 -11 -21 -15 -46z"/>
<path d="M3343 495 c-40 -28 -37 -105 5 -105 16 1 16 1 0 11 -24 13 -23 61 0
82 23 21 65 22 82 2 18 -22 4 -62 -28 -79 -18 -10 -21 -15 -10 -16 21 0 58 46
58 74 0 12 -5 27 -12 34 -17 17 -69 15 -95 -3z"/>
<path d="M3487 496 c-3 -7 -8 -35 -11 -62 l-5 -49 11 48 c6 26 15 47 19 47 5
0 20 -20 35 -45 30 -52 41 -56 50 -17 3 15 10 42 14 60 5 17 5 32 0 32 -5 0
-12 -20 -16 -45 -3 -25 -10 -45 -15 -45 -4 0 -20 20 -35 45 -27 47 -38 54 -47
31z"/>
<path d="M3646 454 c-21 -31 -35 -58 -33 -61 3 -3 10 5 17 16 15 29 62 28 84
-1 15 -21 16 -21 12 -3 -17 73 -28 105 -35 105 -4 0 -25 -25 -45 -56z m54 11
c0 -20 -5 -25 -26 -25 -25 0 -25 6 -1 38 15 19 27 14 27 -13z"/>
<path d="M3776 499 c-3 -8 -9 -35 -14 -61 l-10 -48 47 2 c43 1 44 2 9 5 -41 5
-42 8 -28 68 8 38 6 63 -4 34z"/>
<path d="M3887 496 c-3 -7 -9 -34 -12 -60 l-7 -46 48 2 49 1 -43 4 c-38 4 -43
7 -40 26 2 18 12 23 48 28 l45 6 -42 1 c-24 1 -43 5 -43 10 1 19 19 31 55 35
l40 4 -46 1 c-32 1 -49 -2 -52 -12z"/>
<path d="M3139 326 c-27 -13 -37 -44 -17 -50 7 -2 25 -7 41 -10 15 -4 27 -13
27 -21 0 -20 -48 -31 -71 -16 -26 15 -34 14 -19 -4 15 -18 71 -20 88 -3 21 21
14 47 -15 54 -46 10 -53 13 -53 24 0 21 44 29 69 13 16 -11 22 -11 19 -2 -7
20 -43 28 -69 15z"/>
<path d="M3340 336 c0 -2 12 -11 26 -21 17 -11 25 -12 22 -4 -4 11 -48 34 -48
25z"/>
<path d="M3454 330 c-44 -18 -69 -81 -42 -108 19 -19 63 -14 89 9 l24 21 -25
-16 c-30 -20 -64 -21 -79 -2 -14 17 -5 60 15 77 21 17 66 14 81 -7 7 -10 13
-14 13 -8 -1 29 -42 48 -76 34z"/>
<path d="M3964 325 c11 -8 24 -21 28 -27 6 -9 8 -7 6 6 -2 10 -14 23 -28 27
-24 9 -24 8 -6 -6z"/>
<path d="M4179 326 c-27 -13 -37 -44 -17 -50 7 -2 25 -7 41 -10 30 -7 36 -30
11 -40 -28 -11 -53 -6 -64 12 -10 15 -10 15 -8 -3 4 -24 61 -34 84 -14 24 20
17 48 -13 55 -58 12 -60 14 -34 35 22 18 25 18 49 3 16 -11 23 -12 20 -3 -7
20 -43 28 -69 15z"/>
<path d="M2857 323 c-2 -5 -7 -25 -11 -46 -4 -21 -10 -45 -13 -53 -7 -20 65
-19 94 1 26 19 39 70 23 90 -13 15 -85 21 -93 8z m87 -19 c9 -24 -4 -63 -24
-74 -10 -6 -31 -10 -46 -10 -26 0 -26 1 -20 42 4 22 9 45 12 50 9 15 71 9 78
-8z"/>
<path d="M2996 322 c-3 -5 -8 -32 -12 -60 l-7 -52 49 2 49 1 -43 4 c-38 4 -43
7 -40 26 2 18 12 23 48 28 l45 6 -43 1 c-36 2 -43 5 -40 20 2 12 16 19 48 23
l45 6 -47 1 c-26 1 -49 -2 -52 -6z"/>
<path d="M3300 315 c-17 -21 -5 -45 22 -45 13 0 29 -4 37 -9 12 -8 12 -12 2
-25 -15 -18 -56 -21 -66 -6 -3 6 -11 10 -17 10 -7 0 -6 -6 2 -15 25 -30 100
-11 100 25 0 14 -9 21 -35 26 -43 8 -54 23 -30 41 11 7 14 13 8 13 -6 0 -16
-7 -23 -15z"/>
<path d="M3568 318 c-4 -8 -9 -37 -12 -64 l-5 -49 14 55 c14 52 15 92 3 58z"/>
<path d="M3617 323 c-2 -5 -7 -25 -11 -46 -4 -21 -10 -45 -13 -53 -4 -11 6
-14 48 -12 52 1 52 2 11 5 -38 4 -43 7 -40 26 2 18 12 23 48 28 l45 6 -43 1
c-36 2 -43 5 -40 20 2 12 16 19 48 23 l45 6 -47 1 c-26 1 -49 -1 -51 -5z"/>
<path d="M3731 273 c-11 -57 -7 -90 4 -37 18 81 18 81 53 24 17 -28 36 -49 41
-46 5 3 12 23 15 43 4 21 10 46 13 57 3 11 1 16 -5 12 -5 -3 -12 -24 -16 -46
-3 -22 -10 -40 -14 -40 -4 0 -19 20 -34 45 -15 25 -31 45 -36 45 -5 0 -14 -26
-21 -57z"/>
<path d="M3897 313 c-25 -29 -31 -68 -12 -87 23 -23 68 -20 91 6 l19 22 -25
-17 c-35 -24 -69 -22 -79 6 -10 28 4 62 33 75 15 8 17 11 5 11 -9 1 -23 -7
-32 -16z"/>
<path d="M4037 316 c-3 -7 -9 -34 -12 -60 l-7 -46 48 2 49 1 -42 4 c-65 6 -56
49 12 56 l40 4 -42 1 c-24 1 -43 5 -43 10 1 19 19 31 55 35 l40 4 -46 1 c-32
1 -49 -2 -52 -12z"/>
<path d="M3414 150 c-12 -5 -29 -19 -38 -32 -32 -46 -15 -79 46 -87 42 -6 44
-5 60 29 10 19 17 42 18 51 0 16 -19 39 -33 39 -5 0 -1 -7 7 -16 9 -8 16 -21
16 -27 0 -20 -30 -58 -41 -52 -5 4 -9 1 -9 -4 0 -19 -49 -12 -60 8 -15 29 4
68 42 85 35 15 28 21 -8 6z"/>
<path d="M3939 142 c-28 -23 -20 -52 14 -52 32 0 51 -22 35 -38 -17 -17 -48
-15 -70 5 -20 18 -25 4 -6 -15 17 -17 64 -15 82 4 24 23 19 43 -11 50 -46 10
-53 13 -53 23 0 20 39 32 61 21 11 -7 23 -9 26 -6 5 4 -38 26 -52 26 -1 0 -13
-8 -26 -18z"/>
<path d="M2847 118 c-13 -18 -33 -46 -43 -63 l-18 -30 25 23 c33 29 77 29 89
0 7 -19 9 -19 9 -5 1 29 -21 107 -30 107 -4 0 -19 -15 -32 -32z m37 -4 c10
-27 7 -34 -19 -34 -29 0 -30 3 -13 30 15 24 24 25 32 4z"/>
<path d="M2950 94 c-12 -55 -8 -88 4 -39 5 20 12 25 40 25 37 0 72 30 63 55
-5 10 -20 15 -51 15 l-45 0 -11 -56z m93 40 c14 -14 -15 -44 -42 -44 -34 0
-40 6 -34 31 4 14 14 19 37 19 18 0 36 -3 39 -6z"/>
<path d="M3081 94 c-13 -54 -10 -90 3 -39 5 20 12 25 40 25 37 0 72 30 63 55
-5 10 -20 15 -50 15 l-44 0 -12 -56z m92 40 c14 -14 -15 -44 -42 -44 -34 0
-40 6 -34 31 4 14 14 19 37 19 18 0 36 -3 39 -6z"/>
<path d="M3211 106 c-18 -73 -16 -76 32 -74 l42 1 -38 4 c-42 5 -41 0 -20 91
10 42 -5 22 -16 -22z"/>
<path d="M3325 104 c-3 -26 -9 -54 -12 -63 -4 -9 -2 -12 3 -8 11 11 33 117 23
117 -4 0 -10 -21 -14 -46z"/>
<path d="M3537 143 c-2 -4 -7 -25 -11 -46 -9 -46 5 -67 44 -67 37 0 58 27 64
80 l6 45 -14 -49 c-16 -52 -28 -66 -63 -66 -30 0 -35 12 -24 62 9 40 9 59 -2
41z"/>
<path d="M3677 136 c-3 -7 -9 -34 -12 -60 l-7 -46 48 2 49 1 -43 4 c-38 4 -43
7 -40 26 2 18 12 23 48 28 l45 6 -43 1 c-36 2 -43 5 -40 20 2 12 16 19 48 23
l45 6 -46 1 c-32 2 -49 -2 -52 -12z"/>
<path d="M3795 104 c-3 -26 -9 -53 -12 -60 -4 -11 7 -14 48 -12 52 1 52 2 11
5 -38 4 -43 7 -40 26 2 17 12 23 43 28 l40 6 -38 2 c-31 1 -38 4 -35 19 2 12
16 19 48 23 l45 6 -51 1 -52 2 -7 -46z"/>
</g>
</svg>
